<svg width="580" height="431" fill="none" xmlns="http://www.w3.org/2000/svg"><g clip-path="url(#clip0)" stroke="#9681BC" stroke-width="2" stroke-linecap="round" stroke-linejoin="round"><path d="M0 429.698c36.248-42.404 198.581-101.987 231.83-109.115 7.32-1.567 13.626-4.811 17.375-5.904 3.748-1.092 23.151-9.467 25.003-10.714 1.852-1.247 11.763-7.315 12.854-8.441 1.091-1.125 5.744-5.517 6.13-6.62.403-.971.652-1.998.738-3.046-.11-.353 2.822-1.566 2.822-1.566s11.4-3.785 12.579-4.138c1.18-.353 1.246 0 1.709-.706.463-.706.904-.508.948-2.273.044-1.766 1.047-2.924.463-3.09-.584-.165-2.888.243-3.825-.154-.937-.398-3.131-.861-3.749-2.207a6.292 6.292 0 01-.749-2.461c-.155-.982-.695-3.133-.695-3.133a25.73 25.73 0 00-2.072-2.207c-.276-.111 1.102-2.075 1.907-2.814a52.942 52.942 0 004.343-6.058c.507-.904 2.734-4.843 3.308-6.057.573-1.214 2.149-3.675 2.855-4.855a42.51 42.51 0 003.01-5.517c.782-1.953 1.598-4.502 1.995-5.716.397-1.214 1.444-4.138 2.205-6.995.761-2.858 6.692-24.121 18.047-29.13 1.102-.508 3.197-1.203 4.057-1.556.859-.353 2.072-.828 2.271-1.214.198-.386.584-3.167 1.675-4.612a16.421 16.421 0 013.55-3.443c1.103-.783 3.01-1.6 2.734-2.206-.275-.607-2.635-1.214-2.712-4.105 0-.75.992-6.113 3.307-9.114 1.191-1.523 4.884-5.517 5.513-8.011.628-2.494 3.483-8.827 3.516-9.302.033-.474 2.701-9.467 3.242-11.034a69.041 69.041 0 002.348-6.488 48.012 48.012 0 012.105-6.333c.706-1.876.75-3.443 1.797-4.844 1.048-1.401 1.522-2.35 2.459-2.736.937-.387 2.546-.663 1.642-1.336-.904-.673-1.565-1.015-1.83-1.6a21.493 21.493 0 01-.628-3.597c0-.198-.43-1.169-.43-1.522s-.232-2.968.816-3.873a7.402 7.402 0 001.995-2.306c.551-.938.662-2.428 1.797-2.814a27.066 27.066 0 014.068-1.335 25.76 25.76 0 012.922-.618 4.8 4.8 0 011.422 2.041c.198.706 1.179 1.953 1.256 2.273.178.911.41 1.81.695 2.693a2.435 2.435 0 01.243 1.953c-.32.551-.673 1.213-.585 1.368.231.586.347 1.212.342 1.842a7.633 7.633 0 01-.617 2.417c-.468.408-.89.867-1.257 1.368-.155.397-.077.706.242.784.32.077 4.84 2.548 6.361 6.101 1.037 2.406 4.928 7.195 5.513 8.717.584 1.523 1.763 4.811 2.546 4.657.783-.155 1.477.154 1.323-1.258-.154-1.413-.584-1.369 0-3.046a42 42 0 013.374-5.782c.551-.86.198-.75 0-1.566-.199-.817-1.048-.861.782-2.075 1.83-1.213 2.933-1.368 2.304-2.339-.628-.971-1.102-.982-.694-1.567.408-.585 4.564-2.306 4.41-3.211-.155-.904-.816-1.169-.662-1.522a9.035 9.035 0 013.043-2.207c1.334-.596 3.946-1.876 4.806-2.395.86-.518 1.4-.816 2.304-1.324.904-.507 1.842-3.718 2.205-4.49.364-.773.596-2.936 1.687-2.66 1.091.276.86 1.523.739 2.207a30.593 30.593 0 00-.309 3.31c0 .188.739 0 1.102-.551.364-.552.816-1.644 1.103-2.152.286-.508.507-1.799.738-2.03.232-.232.629.353.519 1.522-.111 1.17-.397 4.028 0 4.657a8.829 8.829 0 001.267 1.644c.397.309 6.615 3.785 7.111 4.336.496.552 5.865 3.906 7.078 4.612a9.743 9.743 0 003.472 1.567c1.643.353 2.106.155 2.933 1.048.827.894 2.26 1.92 2.613 2.66.352.739.705 1.103.396 2.118a28.08 28.08 0 00-.904 3.399c-.077.629-.275 1.721-.782 1.754a5.286 5.286 0 01-2.459-.662 13.46 13.46 0 00-2.028-1.291c-.276 0-1.29-.187-1.334.276-.044.463 0 .783.904 1.445a2.975 2.975 0 011.323 1.644c.154.585.86 1.17.121 1.49-.739.32.199.077-1.444.309-1.643.232-4.961.276-5.711-.629-.749-.905-.738-1.644-1.279-2.063a6.93 6.93 0 00-3.307-.706 6.281 6.281 0 00-2.921.662c-.937.662-1.72 1.169-1.103 3.045a54.374 54.374 0 004.101 7.823c1.246 2.108 3.12 6.256 3.87 7.934.75 1.677 1.102 4.501 2.106 7.161a41.43 41.43 0 011.763 6.521c.342 1.611 1.202 3.685 1.401 4.413.198.729-.122 3.829.275 4.337.397.507.783.706 1.753.629.97-.078 6.328-.309 8.323-1.104a19.102 19.102 0 014.84-1.291c1.367-.198 3.307-.309 3.362.276a13.186 13.186 0 002.933 5.12 101.916 101.916 0 007.342 7.194c1.367.938 3.01 1.997 3.594 3.211.491 1.523.678 3.127.551 4.723v4.027c0 1.17.794 2.902 0 3.365-.794.464-.76-.231-1.852 1.016a14.914 14.914 0 00-2.205 3.519c-.352.784-.86.784-1.014.707-.154-.078-1.643-4.414-2.039-5.517-.397-1.104-1.478-2.075-.739-2.737.46-.414.986-.749 1.554-.993.463-.276 1.169.155.386-1.6-.783-1.754-2.767-3.873-3.671-5.274-.904-1.401-5.898-7.592-6.559-8.176-.662-.585-2.734-2.152-3.594-2.031-.86.122-5.744 1.104-6.758 1.678-1.014.573-2.304.937-2.15 1.412.154.474 1.169.662 3.792.662 2.624 0 6.516-.43 7.85.386 1.334.817 3.472 2.703 3.825 4.105.353 1.401 1.246 6.841 1.411 7.724.166.882.86 5.164 1.444 6.918.585 1.754 1.643 5.12 1.522 5.947a3.19 3.19 0 01-1.103 2.141 6.967 6.967 0 00-1.367 3.52c-.077.827-.584 2.935-1.212 3.442a8.161 8.161 0 01-2.536.982c-1.163.324-2.26.851-3.241 1.556-1.014.828-1.918 2.119-2.734 2.207-.816.088-1.599.353-1.521-1.644.077-1.997.507-6.058 1.102-7.073.595-1.015 1.014-2.383 1.83-2.659a6.148 6.148 0 012.425 0c.618 0 1.445.507 1.83-.155.386-.662.508-1.103-.11-1.566-.617-.464-1.102-.828-.827-1.953.276-1.126.232-7.349-.275-8.607-.507-1.258-1.202-3.785-1.632-4.182-.43-.397-1.411-.43-2.15-.894-.738-.463-.937-1.026-1.488-1.258a2.982 2.982 0 00-2.106-.308c-1.444.11-9.491.937-11.961 1.213-2.469.276-7.419.431-8.235 1.104-.816.673-1.014 1.026-.827 1.688.188.662 1.103 4.888 2.778 5.903 1.676 1.015 3.638 2.77 5.27 2.891 1.631.121 5.082.309 5.633.353a3.19 3.19 0 011.555.464c.121.198.165.827-.893 1.688-1.059.86-3.131 3.2-4.498 3.475a17.599 17.599 0 01-4.178-.154 4.852 4.852 0 00-2.657.43c-1.213.629-3.164 1.247-3.627.817a7.22 7.22 0 01-1.411-2.339 8.897 8.897 0 000-2.461c-.276-.552-5.435-8.452-5.744-8.452a56.658 56.658 0 00-6.405 3.211c-.827.585-9.69 5.517-11.995 6.256A37.87 37.87 0 01398.882 210a7.808 7.808 0 00-5.865 2.008 7.491 7.491 0 00-1.753 5.594c1.995 7.305-4.542 11.034-6.482 12.391a56.04 56.04 0 01-6.141 3.564c-1.246.618-4.608 2.064-5.303 3.046-.694.982-1.411 1.445-1.334 2.206a3.852 3.852 0 001.952 2.704c1.179.629 13.361 8.518 14.331 9.456a33.494 33.494 0 003.197 2.35 3.844 3.844 0 001.841.894c.816.165 1.83-1.104 3.043-1.556 1.213-.452 3.638-.507 6.295-.552 2.657-.044 4.41-.783 5.27-.154.859.629 1.102 1.291 1.995 1.677.893.386-.706 1.103 3.395.585 4.102-.519 9.922-.739 12.425-.938 2.502-.199 13.549-.342 15.974-.508 2.425-.165 12.535-.971 16.283-.231 3.748.739 9.382 1.6 10.672 1.842 1.289.243 6.559 1.6 8.477 2.108 1.918.507 3.396 1.214 5.7 1.92 2.304.706 6.559 1.103 7.463 1.324.904.221 1.477-.121 2.734 1.214a16.034 16.034 0 004.642 2.968c.904.353 3.307 1.412 4.222 1.688.915.276 4.41 1.523 4.531 1.6.121.077 3.054 1.17 3.208 2.107.154.938-.077 2.814.783 4.337.86 1.522 1.797 4.502 2.337 5.318.54.817 1.367.673 1.797 2.207a8.25 8.25 0 01.474 4.182 26.733 26.733 0 00-.474 3.718 17.158 17.158 0 01-.232 4.293c-.397 1.445-1.72 3.519-1.951 4.656-.232 1.136-.662.232-1.103 4.414-.44 4.181.353 3.056-.738 5.517-1.092 2.46-1.014 3.244-2.15 4.06-1.135.817.783 1.104-2.271 1.324-3.054.221-4.762.629-6.328 1.766a24.55 24.55 0 01-3.594 2.582c-1.797.971-1.83.816-2.844 1.909-1.014 1.092-1.18 1.026-1.102 3.056.077 2.03.198 4.689.385 6.135.188 1.445.43 2.383.552 3.012.121.629.154 3.31.551 5.197.326 1.794.44 3.62.342 5.44-.078 1.015-.938 1.324-.265 3.31.672 1.986.783 3.95 2.15 5.517a14.342 14.342 0 003.979 3.796c1.72.982 4.73 2.383 6.13 3.244a5.515 5.515 0 012.271 3.089c.386 1.015.783 3.311 1.367 3.951.584.64-.32-.155 2.536 3.906a48.85 48.85 0 004.961 6.256c.43.43 3.748 3.012 4.575 4.855a17.202 17.202 0 004.409 5.517c2.15 1.953 2.701 3.211 4.928 3.244 2.227.033 2.889-.265 3.55.629.662.894.43.353 3.55 4.149a36.588 36.588 0 015.314 8.242c1.014 2.074.859 4.182 4.531 8.452 3.671 4.27 4.023 5.749 5.82 6.996a9.44 9.44 0 013.793 4.027c1.102 2.074.507 2.858 2.205 4.844 1.697 1.986 2.976 3.244 2.976 3.244"/><path d="M320.157 274.306s2.293-8.243 3.44-11.365a82.947 82.947 0 014.795-10.317c2.293-4.414 4.895-10.538 5.104-15.227.21-4.689 1.875-12.513 2.701-16.165.827-3.652 1.467-9.169 4.586-13.13 3.12-3.962 5.413-6.985 5.413-6.985.254 2.068.622 4.12 1.103 6.146a29.287 29.287 0 006.251 11.575 40.083 40.083 0 006.868 5.517 3.888 3.888 0 011.444 5.418c-1.51 2.261-5.7 5.748-6.13 6.256a4.55 4.55 0 00-.617 4.689c.397.74 5.248 5.595 5.457 6.113.21.519 1.621 4.005 1.83 4.634a54.455 54.455 0 003.12 5.109c.739 1.037 3.23 3.961 2.712 4.171-.518.21-7.188 1.876-7.497 1.975-.308.099-11.873 1.104-15.213 2.505-3.34 1.401-13.637 4.27-14.475 4.689-.838.42-6.769 2.814-7.497 3.134-.727.32-3.395 1.258-3.395 1.258zm46.953-27.42a9.329 9.329 0 002.844 4.414c.198.077 2.381 1.445 3.241 1.953a26.331 26.331 0 013.307 2.35c.783.695 3.363 2.461 3.55 2.659a3.302 3.302 0 001.72.342c.474-.077 3.517-1.103 3.517-1.103a34.459 34.459 0 01-4.41-2.968c-3.748-2.703-12.303-9.545-12.513-9.699-.209-.154-1.19-1.346-1.499-.452a4.491 4.491 0 00.243 2.504v0zm53.6-128.447a11.651 11.651 0 00-1.786 5.142c-.099 2.604 1.466 6.411 2.712 7.238 1.246.828 4.63 3.134 6.515 3.653 1.885.518 4.278 1.103 6.505.099m-18.521-15.404a49.4 49.4 0 00-4.818 8.033c-1.984 4.27-3.307 15.448-3.836 18.239a32.153 32.153 0 00-.838 10.218c.43 3.575 1.565 6.676 3.539 8.342m-24.684-60.831a15.795 15.795 0 00-3.307 2.45c-1.103 1.247-2.492 2.394-2.756 3.31-.265.916-1.246 2.449-.992 3.387.253.938.474 2.45 1.411 3.189.97.748 1.877 1.575 2.712 2.472a3.307 3.307 0 004.156.816m-15.456 8.949s-.287 11.839 1.874 15.768c1.102 1.997 1.102 5.837 1.808 6.808.452.617 14.177 6.488 14.409 7.326.231.839-4.697 1.876-5.843 2.703-1.147.828-3.793 2.869-4.267 5.517a12.318 12.318 0 01-3.902 7.404c-2.867 2.395-8.28 4.414-12.127 5.738a83.384 83.384 0 00-9.823 4.689"/><path d="M399.565 154.079l48-22.101-46.027 25.665m44.902-20.126l-8.841 6.477m-2.37 51.75c-2.04-6.941-2.712-17.324-6.968-21.859-2.116-2.262-12.126-6.995-12.126-6.995-4.818-2.891-26.161-9.247-26.778-9.247 0 0-5.116 12.524-6.769 15.735-1.566 3.045 6.46 5.108 6.46 5.108 1.102.21 8.819.53 12.799.53 3.98 0 10.275.828 11.94.938l6.46 2.383s5.291 15.073 7.496 17.004m18.246 53.129l-2.889 9.743s-.419 7.723 0 10.007-25.201 8.342-25.62 9.379c-.419 1.038.826 13.352 0 14.179-.827.828-9.58 10.218-9.58 10.218l-41.132 6.465-17.639 1.876s-8.742 4.8-13.957 5.837c-5.214 1.037-16.04 4.8-20.626 7.923-4.586 3.122-11.455 13.351-16.868 16.683-5.412 3.332-23.338 11.685-27.296 12.303-3.957.618-9.161-4.579-9.161-4.579S127 405.357 89.782 431"/><path d="M344.201 316.831s24.893 3.553 31.794 4.601 24.607.828 29.402 2.505a144.275 144.275 0 0016.25 4.998c7.717 1.876 8.952-1.247 12.501 1.457 3.55 2.703 13.748 9.18 22.7 11.034 8.951 1.854 17.297 2.924 18.542 3.31 1.246.386-.209 9.6 5.215 15.448 5.424 5.848 19.579 21.262 26.249 26.272 6.67 5.009 17.705 7.084 17.076 9.588-.628 2.505 6.67 33.621 6.67 33.621m-247.154-76.918s15.93 3.31 26.403 4.689c10.473 1.379 40.79 3.134 49.224 6.621 8.433 3.486 6.868 6.786 6.868 6.786s9.382 7.911 17.341 7.602c7.96-.309 15.434-2.041 20.318-1.258 4.884.783 4.531 2.659 4.531 2.659s10.936 6.257 14.221 7.503c3.286 1.247 24.254 10.174 24.838 10.328.584.155-2.028-2.813 0-3.442 2.029-.629 19.061-2.66 19.061-2.66s3.131 4.414 3.594 4.69c.463.276 13.02 9.655 13.02 9.655M382.544 173.378s-1.786 4.413-4.41 6.466c-7.552 6.057-15.004-.828-15.004-.828s9.69-2.814 11.575-5.296m6.439 28.203c9.249 8.904 10.098 15.05 10.098 15.05m-24.574 27.331s-.33-7.117 4.3-8.209a36.196 36.196 0 007.011-2.273m59.62-39.215s12.193-8.397 14.111-11.133m-11.289-65.664s1.632 7.128 1.4 8.154c-.309 1.457-1.951 4.723-2.888 5.352-.937.629-3.704 2.814-3.704 2.814m55.055 187.093s-16.878-11.884-20.836-13.55c-3.957-1.666-17.076-13.561-17.076-13.561l-10.297-1.225-24.54 2.891m-37.097-157.323c1.102 3.134.375 7.867.375 7.867l11.024 5.892m.364.254a13.535 13.535 0 005.975 1.214c3.01-.077 3.307 4.822 3.307 4.822s-3.153 2.295-5.942.827"/></g><defs><clipPath id="clip0"><path fill="#fff" d="M0 0h580v431H0z"/></clipPath></defs></svg>