<svg width="90" height="90" fill="none" xmlns="http://www.w3.org/2000/svg"><path d="M68.273 18.616A1.758 1.758 0 0068.128 16a36.962 36.962 0 00-23.124-8.093H45c-2.517 0-5.03.253-7.474.754a36.918 36.918 0 00-6.963 2.16 37.134 37.134 0 00-6.3 3.421 37.208 37.208 0 00-13.439 16.319 36.933 36.933 0 00-2.16 6.963 37.284 37.284 0 00-.754 7.474 36.956 36.956 0 008.091 23.129 1.757 1.757 0 001.377.66c.467 0 .909-.182 1.24-.514l49.655-49.657zM44.656 37.263H43.27l-3.998-8.965h7.288l2.384 4.676-4.288 4.29zM41.14 40.78l-7.148 7.148-8.026-1.168-3.906-12.836h1.29a5.254 5.254 0 014.741 2.962c.108.223 2.074 3.206 2.074 3.206.332.434.848.688 1.395.688h9.58zM17.564 64.356c-4.015-5.683-6.138-12.376-6.138-19.358.002-8.967 3.493-17.398 9.833-23.742 6.344-6.34 14.774-9.834 23.741-9.834a33.366 33.366 0 0119.357 6.139l-12.8 12.8-2.354-4.62a1.758 1.758 0 00-1.566-.959H36.562a1.758 1.758 0 00-1.605 2.474l4.464 10.008h-6.994l-.813-1.06a8.759 8.759 0 00-8.263-5.796h-3.663a1.757 1.757 0 00-1.682 2.27l4.922 16.172c.198.651.755 1.13 1.428 1.228l6.535.95-13.327 13.328zm4.309 9.642a36.962 36.962 0 0023.122 8.091H45c2.517 0 5.031-.253 7.474-.754a36.915 36.915 0 006.963-2.16 37.197 37.197 0 0016.318-13.44 37.132 37.132 0 003.42-6.3 36.933 36.933 0 002.16-6.963c.502-2.443.755-4.957.755-7.474a36.953 36.953 0 00-8.091-23.129 1.76 1.76 0 00-2.618-.146L21.727 71.38a1.758 1.758 0 00.146 2.618zm48.145-32.884c.299.365.47.82.47 1.247 0 4.362-3.548 7.91-7.91 7.91h-3.667l.486-.97a1.758 1.758 0 10-3.142-1.576l-9.64 17.313h-7.281l5.607-11.902 12.357-12.357h12.354c.075.045.214.15.366.335zm-32.425 19.37l-2.62 5.562a1.759 1.759 0 001.59 2.507h11.074c.631 0 1.214-.338 1.527-.886l7.919-13.88h5.495c6.3 0 11.426-5.126 11.426-11.426a5.51 5.51 0 00-1.267-3.475c-.845-1.032-1.92-1.623-2.952-1.623h-8.972L72.436 25.64c4.015 5.683 6.138 12.375 6.138 19.358-.001 8.967-3.492 17.398-9.833 23.742-6.344 6.34-14.774 9.832-23.74 9.834a33.367 33.367 0 01-19.358-6.139l11.95-11.95z" fill="#fff"/><path d="M89.086 35.929a44.92 44.92 0 00-2.623-8.449 45.07 45.07 0 00-9.643-14.304 45.073 45.073 0 00-14.303-9.644A44.932 44.932 0 0054.069.91a45.658 45.658 0 00-18.138 0 44.918 44.918 0 00-8.448 2.623 45.085 45.085 0 00-14.303 9.643A45.072 45.072 0 003.537 27.48a44.918 44.918 0 00-2.623 8.45A45.34 45.34 0 000 44.998c0 3.053.308 6.105.914 9.069a44.922 44.922 0 002.623 8.448A45.07 45.07 0 0013.18 76.82a45.059 45.059 0 0014.303 9.644 44.931 44.931 0 008.448 2.623c2.964.606 6.016.914 9.07.914 3.59 0 7.162-.424 10.62-1.26a44.778 44.778 0 009.712-3.587 45.174 45.174 0 008.51-5.61 45.275 45.275 0 007.01-7.345 1.759 1.759 0 00-2.8-2.127C70.127 80.502 58.079 86.484 45 86.484c-11.078 0-21.496-4.315-29.334-12.15-7.835-7.839-12.15-18.258-12.15-29.336S7.83 23.5 15.666 15.662C23.504 7.827 33.922 3.512 45 3.512s21.496 4.315 29.334 12.15c7.835 7.838 12.15 18.258 12.15 29.336a41.56 41.56 0 01-1.643 11.6 1.76 1.76 0 001.69 2.249c.776 0 1.469-.52 1.687-1.268A45.052 45.052 0 0090 45a45.37 45.37 0 00-.914-9.07z" fill="#fff"/><path d="M83.636 66.195a1.758 1.758 0 100-3.516 1.758 1.758 0 000 3.516z" fill="#fff"/></svg>